<svg width="950" height="199" viewBox="0 0 950 199" fill="none" xmlns="http://www.w3.org/2000/svg">
<path d="M894.382 112.891C885.014 112.875 875.86 110.083 868.078 104.868C860.296 99.6536 854.235 92.2497 850.659 83.5922C847.084 74.9347 846.156 65.412 847.991 56.2271C849.827 47.0423 854.344 38.6074 860.972 31.9881C867.6 25.3689 876.042 20.8622 885.231 19.0375C894.42 17.2129 903.943 18.152 912.599 21.7364C921.254 25.3207 928.652 31.3895 933.859 39.1758C939.066 46.9622 941.848 56.1169 941.854 65.4833C941.854 78.0519 936.861 90.1062 927.975 98.9961C919.088 107.886 907.034 112.884 894.463 112.891H894.382ZM894.463 9.87663C883.451 9.84985 872.678 13.0906 863.509 19.1886C854.34 25.2866 847.186 33.9677 842.955 44.1326C838.723 54.2975 837.603 65.4892 839.737 76.2907C841.871 87.0923 847.163 97.0179 854.942 104.811C862.722 112.604 872.639 117.914 883.439 120.068C894.238 122.223 905.434 121.125 915.61 116.914C925.785 112.703 934.482 105.569 940.599 96.4131C946.716 87.2577 949.978 76.4935 949.973 65.4833C949.973 58.1787 948.533 50.9456 945.737 44.1973C942.94 37.449 938.841 31.3178 933.673 26.1539C928.506 20.99 922.371 16.8946 915.62 14.1017C908.869 11.3088 901.634 9.87307 894.328 9.87663" fill="#444444"/>
<path d="M894.382 98.2249C891.644 98.2367 888.916 97.9003 886.262 97.2237L884.233 105.341C892.077 107.319 900.331 106.936 907.958 104.24C915.585 101.544 922.245 96.6558 927.103 90.1883L920.499 85.2635C917.466 89.3419 913.518 92.6516 908.973 94.9263C904.427 97.201 899.411 98.3772 894.328 98.3602" fill="#444444"/>
<path d="M926.616 71.0575C926.061 74.3725 924.983 77.5784 923.422 80.5553L930.757 84.3436C932.684 80.6111 934.026 76.6046 934.735 72.4646L926.616 71.0575Z" fill="#444444"/>
<path d="M418.178 118.411L418.15 24.5156L373.981 80.8799L329.757 24.5697L329.811 118.438H321.448L321.394 13.3401H331.597L373.981 67.3232L416.283 13.3131L426.513 13.286L426.568 118.411H418.178Z" fill="#444444"/>
<path d="M8.39007 65.2938H47.4445C53.1869 65.2938 58.6941 63.0131 62.7547 58.9534C66.8152 54.8938 69.0963 49.3877 69.0963 43.6464C69.0963 37.9052 66.8152 32.3991 62.7547 28.3394C58.6941 24.2798 53.1869 21.9991 47.4445 21.9991H8.39007V65.2938ZM0 118.682V13.5295H47.4175C55.2325 13.764 62.6489 17.0327 68.0939 22.6425C73.539 28.2522 76.5844 35.7618 76.5844 43.5788C76.5844 51.3958 73.539 58.9054 68.0939 64.5151C62.6489 70.1249 55.2325 73.3935 47.4175 73.628H8.39007V118.655L0 118.682Z" fill="#444444"/>
<path d="M758.68 118.168L685.036 24.3263L685.063 118.195H676.701L676.646 13.0967H686.876L760.871 107.344L760.818 13.0697L769.18 13.0426L769.234 118.141L758.68 118.168Z" fill="#444444"/>
<path d="M602.11 55.7961C601.46 74.954 582.028 100.363 559.672 111.295C553.71 114.416 547.127 116.173 540.402 116.436C538.107 116.566 535.808 116.241 533.639 115.479C531.47 114.718 529.473 113.535 527.763 111.998L517.722 101.743H519.643C527.066 101.231 534.306 99.2048 540.916 95.7896C565.924 83.5318 586.574 56.4726 587.928 34.1758C587.928 33.8511 587.928 33.4993 587.928 33.1746C587.928 32.8499 587.928 32.6334 587.928 32.3628L597.833 42.483C598.56 43.2057 599.197 44.0145 599.728 44.8912C601.591 48.1794 602.439 51.9457 602.164 55.7149L602.11 55.7961ZM578.996 38.5323C575.207 56.9867 557.534 78.4717 537.181 88.3483C533.056 90.434 528.668 91.954 524.136 92.8672C527.925 74.494 545.571 53.0631 565.897 43.1324C570.031 41.0658 574.416 39.5467 578.942 38.6135L578.996 38.5323ZM513.689 93.1378C512.55 92.9624 511.434 92.6629 510.36 92.2448C509.846 92.0554 509.359 91.839 508.899 91.6225C507.559 90.9232 506.343 90.0091 505.299 88.9166C503.719 87.1345 502.518 85.0497 501.768 82.7889C501.019 80.5281 500.738 78.1387 500.942 75.7658C501.591 56.6349 521.051 31.2263 543.406 20.2673C549.359 17.146 555.933 15.3897 562.649 15.1261C564.979 14.9916 567.311 15.3298 569.507 16.1203C571.702 16.9109 573.715 18.1374 575.424 19.7262C578.031 22.6212 579.511 26.3572 579.592 30.2522C573.564 31.1864 567.719 33.0581 562.27 35.7993C538.778 47.2995 519.102 71.9504 515.692 93.4354C515.02 93.3976 514.351 93.3162 513.689 93.1919V93.1378ZM606.684 40.5888C605.794 39.1625 604.741 37.8457 603.544 36.6652L581.053 13.7461L580.891 13.5296C575.928 8.98921 569.37 6.59621 562.649 6.87304C554.675 7.13409 546.86 9.17746 539.779 12.8531C514.582 25.1651 493.472 53.2525 492.714 75.4681C492.44 78.9582 492.887 82.4673 494.028 85.7771C495.169 89.087 496.979 92.1267 499.345 94.7072L521.754 117.572C524.215 119.905 527.119 121.72 530.294 122.91C533.47 124.1 536.852 124.64 540.24 124.499C548.216 124.228 556.03 122.176 563.109 118.492C588.307 106.18 609.417 78.0929 610.202 55.9043C610.554 50.5649 609.331 45.2395 606.684 40.5888Z" fill="#444444"/>
<path d="M127.719 100.119L177.274 24.8674L164.337 118.411L127.719 100.119ZM186.476 18.4003L247.182 106.18L172.484 119.575L186.476 18.4003ZM183.77 0L115.729 103.474L167.152 128.937L261.229 112.025L183.77 0Z" fill="#444444"/>
<path d="M297.535 198H311.285C318.535 198 323.335 194.2 323.335 188.05C323.335 184.6 321.335 181.3 317.935 179.75C320.785 178.3 322.485 175.25 322.485 172.25C322.485 165.85 317.535 162.95 310.385 162.95H297.535V198ZM301.335 194.4V181.95H311.935C316.085 181.95 319.485 183.8 319.485 187.95C319.485 192.4 316.185 194.4 311.735 194.4H301.335ZM311.085 166.55C315.235 166.55 318.635 168.2 318.635 172.35C318.635 176.5 315.285 178.35 311.135 178.35H301.335V166.55H311.085ZM336.135 162.95H331.935L343.335 183.85V198H347.135V183.85L358.535 162.95H354.335L345.285 180.1L336.135 162.95ZM417.922 189.75C415.222 193.25 411.472 195 406.972 195C398.972 195 393.172 188.6 393.172 180.55C393.172 172.35 398.972 165.95 406.722 165.95C411.272 165.95 414.772 167.9 417.272 171.1L419.822 168.4C416.622 164.45 412.072 162.4 406.722 162.4C396.772 162.4 389.372 170.55 389.372 180.55C389.372 190.4 396.772 198.55 406.972 198.55C412.272 198.55 417.172 196.25 420.372 192.55L417.922 189.75ZM454.932 198H458.732V162.95H454.932V178.35H435.882V162.95H432.082V198H435.882V181.95H454.932V198ZM488.15 162.95H483.85L470.15 198H474.3L477.4 189.95H494.5L497.7 198H501.8L488.15 162.95ZM485.95 167.85L493.1 186.3H478.9L485.95 167.85ZM513.271 198H517.071V162.95H513.271V198ZM552.925 198H557.475L548.125 184.65C553.425 183.35 556.625 179.5 556.625 174.05C556.625 167.35 551.675 162.95 543.825 162.95H531.625V198H535.425V185.1H543.775L552.925 198ZM544.375 166.55C549.475 166.55 552.825 169.2 552.825 174.05C552.825 179.15 549.375 181.55 544.375 181.55H535.425V166.55H544.375ZM570.096 198H573.896V162.95H570.096V198ZM601.812 182.45C606.062 183.2 609.162 185.05 609.162 188.75C609.162 192.8 605.362 195 600.612 195C594.962 195 591.512 192.4 589.362 189.45L586.762 192.15C589.362 195.8 594.212 198.55 600.162 198.55C608.012 198.55 612.962 194.25 612.962 188.7C612.962 183.05 608.862 179.75 602.312 178.7L598.862 178.1C594.562 177.4 591.412 175.75 591.412 171.95C591.412 168.4 594.862 165.95 599.412 165.95C604.312 165.95 607.262 168.2 609.212 170.55L611.762 167.75C609.012 164.75 605.262 162.4 599.712 162.4C593.612 162.4 587.612 165.9 587.612 172.1C587.612 177.9 592.362 180.8 597.512 181.7L601.812 182.45ZM648.647 198H652.447V162.95H648.647V178.35H629.597V162.95H625.797V198H629.597V181.95H648.647V198Z" fill="#444444"/>
</svg>
